<svg width="757" height="151" viewBox="0 0 757 151" fill="none" xmlns="http://www.w3.org/2000/svg">
<g clip-path="url(#clip0_249_199)">
<path d="M642.873 33.5344V19.6238H638.249V16H651.945V19.6238H647.321V33.5344H642.814H642.873ZM654.579 33.5344V16H660.49L666.343 31.0211H664.119L670.498 16H676.058V33.5344H671.903L671.727 18.6302L673.132 18.5133L666.811 33.4759H663.65L657.505 18.5133L658.676 18.6302V33.5344H654.579Z" fill="#231F20"/>
<path d="M244.528 106.01V93.2097L278.416 53.6989H245.055V40.665H296.502V53.4651L262.204 92.9759H297.145V106.01H244.528Z" fill="#231F20"/>
<path d="M327.873 107.588C322.839 107.588 318.567 106.711 315.055 104.899C311.543 103.087 308.851 100.691 307.037 97.7102C305.164 94.7294 304.286 91.4563 304.286 87.9494C304.286 81.111 306.744 75.7922 311.719 71.9931C316.694 68.194 323.191 66.3237 331.326 66.3237C335.013 66.3237 338.291 66.6159 341.159 67.2004C344.027 67.7849 346.309 68.3109 348.065 68.8369V65.7976C348.065 60.9465 346.719 57.4396 344.027 55.1017C341.334 52.8222 337.823 51.6532 333.55 51.6532C330.39 51.6532 327.58 52.2962 325.122 53.582C322.664 54.8679 321.084 57.1473 320.381 60.4789H305.339C305.866 55.7446 307.446 51.7701 310.08 48.6139C312.714 45.4578 316.109 43.0614 320.147 41.4249C324.244 39.7883 328.692 38.97 333.55 38.97C343.149 38.97 350.582 41.308 355.908 46.0422C361.234 50.7181 363.868 57.3227 363.868 65.7392V81.6955C363.868 85.027 364.043 87.4818 364.453 89.0015C364.863 90.5211 365.507 91.5147 366.443 91.9239C367.38 92.333 368.55 92.5083 370.072 92.5083H370.716V105.951H367.145C362.639 105.951 358.893 105.308 355.849 104.023C352.806 102.737 350.699 100.223 349.47 96.4244C347.246 99.5805 344.378 102.211 340.749 104.315C337.12 106.419 332.848 107.471 327.814 107.471L327.873 107.588ZM331.326 95.3138C334.428 95.3138 337.062 94.6125 339.227 93.1513C341.451 91.6901 343.207 89.7613 344.553 87.3649C345.9 84.9686 346.836 82.28 347.246 79.416C345.373 78.89 343.207 78.3639 340.632 77.8379C338.057 77.3119 335.482 77.0196 332.848 77.0196C328.868 77.0196 325.766 77.8964 323.542 79.6498C321.318 81.4032 320.147 83.7996 320.147 86.7804C320.147 89.2353 321.142 91.2809 323.132 92.9175C325.122 94.554 327.814 95.3723 331.268 95.3723L331.326 95.3138Z" fill="#231F20"/>
<path d="M370.365 135V122.375H384.236C385.582 122.375 386.635 122.2 387.455 121.849C388.274 121.499 389.094 120.797 389.972 119.745C390.791 118.693 391.727 116.998 392.664 114.602L398.751 101.276L397.814 108.523L369.194 40.665H386.46L405.306 87.4234L425.089 40.665H441.945L406.886 119.687C405.365 123.018 404.135 125.707 403.082 127.694C402.028 129.74 400.975 131.259 399.921 132.311C398.868 133.363 397.639 134.065 396.176 134.416C394.712 134.766 392.956 134.942 390.849 134.942H370.423L370.365 135Z" fill="#231F20"/>
<path d="M447.564 106.01V40.665H463.366V50.835C465.59 47.2112 468.517 44.4057 472.263 42.2431C476.008 40.139 480.281 39.0869 485.139 39.0869C493.216 39.0869 499.537 41.6002 503.985 46.6852C508.492 51.7117 510.716 59.1346 510.716 68.8954V106.068H494.913V70.4735C494.913 64.5702 493.684 60.1282 491.284 57.0889C488.885 54.0496 485.197 52.53 480.281 52.53C475.365 52.53 471.443 54.2249 468.224 57.6734C465.005 61.1218 463.425 65.973 463.425 72.2854V106.01H447.564Z" fill="#231F20"/>
<path d="M553.617 107.588C547.003 107.588 541.209 106.185 536.117 103.321C531.084 100.457 527.104 96.4828 524.236 91.3978C521.368 86.3129 519.963 80.4096 519.963 73.7466C519.963 67.0835 521.368 61.0049 524.177 55.7446C526.987 50.5427 530.967 46.4514 536.058 43.4705C541.15 40.5481 547.062 39.0285 553.734 39.0285C560.406 39.0285 565.791 40.4312 570.707 43.2367C575.624 46.0422 579.37 49.8414 582.062 54.6341C584.754 59.4268 586.1 64.804 586.1 70.7657V73.6881C586.1 74.7402 585.983 75.9091 585.808 77.1365H531.435V66.8497H570.063C569.771 62.2908 568.132 58.667 565.03 55.9784C561.928 53.2898 558.182 51.9455 553.676 51.9455C550.398 51.9455 547.413 52.6469 544.662 54.1081C541.911 55.5693 539.687 57.7318 537.99 60.5373C536.293 63.4013 535.473 67.025 535.473 71.4086V75.2078C535.473 79.2407 536.293 82.6891 537.931 85.6115C539.57 88.5339 541.736 90.6965 544.487 92.2161C547.237 93.7358 550.222 94.4371 553.617 94.4371C557.246 94.4371 560.231 93.6189 562.689 91.9823C565.147 90.3458 566.962 88.1832 568.074 85.4361H584.169C582.998 89.6444 581.008 93.3851 578.14 96.7166C575.273 99.9897 571.761 102.62 567.664 104.549C563.508 106.477 558.826 107.471 553.558 107.471L553.617 107.588Z" fill="#231F20"/>
<path d="M596.05 106.01V40.665H611.853V50.6596C613.492 47.3865 615.657 44.8148 618.291 42.9445C620.925 41.0742 623.968 40.139 627.363 40.139H636.201V54.2249H625.783C622.681 54.2249 620.105 55.0432 618.057 56.6798C616.008 58.3163 614.428 60.8296 613.375 64.1611C612.321 67.5511 611.794 71.7593 611.794 76.8443V105.951H595.992L596.05 106.01Z" fill="#231F20"/>
<path d="M206.661 119.862V23.6567L126.184 119.862H206.661Z" fill="#231F20"/>
<path d="M81 40.665V135L159.311 40.665H81Z" fill="#231F20"/>
</g>
<defs>
<clipPath id="clip0_249_199">
<rect width="595" height="119" fill="white" transform="translate(81 16)"/>
</clipPath>
</defs>
</svg>
